#!OML:ASF I:\Actors\actors\Patient Classification 2\Patient 1\Session 1\actor1.ASF
:FULLY-SPECIFIED
:DEGREES
178
root -1.18719 17.4842 6.38236 -15.2424 -2.61354 -3.11108
lowerback 0.185825 -0.150137 2.05457
upperback -1.47818 -0.151055 1.98824
thorax -1.61916 -0.0885893 0.888746
lowerneck -22.56 -2.46514 -1.45415
upperneck 23.956 -4.19145 4.14383
head 11.7112 -1.47065 1.0892
rclavicle 2.78299e-015 -7.95139e-015
rhumerus -20.8113 24.4419 -83.6423
rradius 63.2772
rwrist 5.70405
rhand -13.6636 -25.0912
rfingers 7.12502
rthumb 12.4535 -54.7001
lclavicle 2.78299e-015 -7.95139e-015
lhumerus -20.4097 -42.9598 76.4609
lradius 80.1441
lwrist 26.4283
lhand -8.7087 -21.7315
lfingers 7.12502
lthumb 17.2268 7.5249
rfemur 39.1855 -1.03036 18.6355
rtibia -22.37
rfoot -10.1778 -17.5337
rtoes -4.57814
lfemur 40.4226 -4.91482 -13.4627
ltibia -26.1361
lfoot 0.858109 13.4304
ltoes -17.3403
179
root -1.18579 17.4789 6.39493 -15.2866 -2.62943 -3.22976
lowerback -0.24383 -0.180091 2.02212
upperback -1.5976 -0.20218 2.04716
thorax -1.50014 -0.11297 0.96687
lowerneck -22.1528 -2.48535 -1.42938
upperneck 24.1974 -4.23166 4.09518
head 11.7244 -1.49579 1.06447
rclavicle -2.5842e-015 1.27222e-014
rhumerus -22.9472 24.6004 -84.1319
rradius 64.8697
rwrist 5.39965
rhand -13.8067 -25.058
rfingers 7.12502
rthumb 12.3155 -54.6753
lclavicle -2.5842e-015 1.27222e-014
lhumerus -22.664 -43.6583 77.3942
lradius 81.5947
lwrist 26.3282
lhand -8.89308 -22.0421
lfingers 7.12502
lthumb 17.0494 7.22978
rfemur 39.1877 -0.983498 18.8092
rtibia -22.1429
rfoot -10.4002 -17.4385
rtoes -4.90425
lfemur 40.547 -4.94371 -13.3317
ltibia -26.1607
lfoot 0.76648 13.4303
ltoes -17.6332
180
root -1.18246 17.4753 6.41071 -15.2974 -2.61795 -3.29214
lowerback -0.716459 -0.227621 2.01529
upperback -1.70178 -0.279149 2.04404
thorax -1.34162 -0.150817 0.966366
lowerneck -21.8447 -2.45091 -1.34869
upperneck 24.5028 -4.22984 4.09199
head 11.7802 -1.48797 1.05405
rclavicle -1.59028e-015 -5.96354e-015
rhumerus -25.1659 24.747 -84.6555
rradius 66.5506
rwrist 5.07952
rhand -14.0159 -24.9811
rfingers 7.12502
rthumb 12.1137 -54.6104
lclavicle -1.59028e-015 -5.96354e-015
lhumerus -24.9705 -44.1828 78.3803
lradius 83.0764
lwrist 26.3305
lhand -9.09199 -22.2672
lfingers 7.12502
lthumb 16.8579 7.02109
rfemur 39.1634 -0.970114 18.8872
rtibia -21.9332
rfoot -10.6159 -17.3244
rtoes -4.96355
lfemur 40.6269 -5.01156 -13.2984
ltibia -26.1521
lfoot 0.688801 13.4738
ltoes -17.6825
181
root -1.17716 17.4728 6.42805 -15.3123 -2.68532 -3.29275
lowerback -1.16923 -0.247891 2.00264
upperback -1.76899 -0.320437 1.99734
thorax -1.15666 -0.170857 0.923547
lowerneck -21.6806 -2.3764 -1.22114
upperneck 24.8759 -4.22271 4.19843
head 11.8927 -1.45485 1.07705
rclavicle -6.85807e-015 1.23246e-014
rhumerus -27.3161 24.76 -85.2331
rradius 68.2937
rwrist 4.64623
rhand -14.0958 -24.9124
rfingers 7.12502
rthumb 12.0367 -54.5462
lclavicle -6.85807e-015 1.23246e-014
lhumerus -27.3283 -44.513 79.3569
lradius 84.6118
lwrist 26.5259
lhand -9.27901 -22.486
lfingers 7.12502
lthumb 16.6778 6.81753
rfemur 39.1362 -0.875334 18.8996
rtibia -21.7396
rfoot -10.8197 -17.2053
rtoes -4.64688
lfemur 40.7189 -5.06267 -13.3609
ltibia -26.1183
lfoot 0.589837 13.595
ltoes -17.534
182
root -1.17171 17.4713 6.443 -15.3435 -2.78432 -3.28156
lowerback -1.55064 -0.257861 1.9348
upperback -1.78909 -0.345901 1.99143
thorax -0.962994 -0.181928 0.953366
lowerneck -21.5991 -2.32519 -1.15368
upperneck 25.2209 -4.21698 4.27491
head 12.0116 -1.43106 1.0982
rclavicle -6.26172e-015 -5.96354e-016
rhumerus -29.3764 24.777 -85.7339
rradius 70.1154
rwrist 4.08392
rhand -14.1409 -24.9797
rfingers 7.12502
rthumb 11.9932 -54.6161
lclavicle -6.26172e-015 -5.96354e-016
lhumerus -29.6453 -44.5806 80.3683
lradius 86.1041
lwrist 26.7183
lhand -9.4806 -22.7584
lfingers 7.12502
lthumb 16.4838 6.5614
rfemur 39.1107 -0.786061 18.8881
rtibia -21.5422
rfoot -10.9443 -17.0746
rtoes -4.65715
lfemur 40.8129 -5.06643 -13.4203
ltibia -26.0802
lfoot 0.476212 13.6759
ltoes -17.3429
183
root -1.1653 17.4708 6.45619 -15.3378 -2.77947 -3.26666
lowerback -1.92173 -0.303804 1.83068
upperback -1.80284 -0.417957 2.00167
thorax -0.768118 -0.215877 1.01937
lowerneck -21.4574 -2.28258 -1.09424
upperneck 25.4913 -4.18627 4.25115
head 12.0862 -1.41255 1.08726
rclavicle 1.98785e-016 -4.96962e-015
rhumerus -31.4484 24.9305 -86.1973
rradius 72.0168
rwrist 3.41331
rhand -14.2401 -25.219
rfingers 7.12502
rthumb 11.8976 -54.8609
lclavicle 1.98785e-016 -4.96962e-015
lhumerus -31.8869 -44.5426 81.3656
lradius 87.5507
lwrist 26.9187
lhand -9.73364 -23.0085
lfingers 7.12502
lthumb 16.2401 6.33132
rfemur 39.0425 -0.830481 18.8195
rtibia -21.3345
rfoot -11.074 -16.9029
rtoes -4.55993
lfemur 40.8391 -5.09263 -13.4808
ltibia -26.0535
lfoot 0.377416 13.6743
ltoes -17.2503
184
root -1.15684 17.4692 6.4684 -15.3286 -2.6928 -3.35905
lowerback -2.23913 -0.361674 1.86534
upperback -1.82441 -0.505253 2.00339
thorax -0.612454 -0.259165 0.998424
lowerneck -21.2246 -2.23639 -0.952513
upperneck 25.7167 -4.15616 4.16008
head 12.1216 -1.39727 1.0373
rclavicle 2.28602e-015 -3.57812e-015
rhumerus -33.5594 25.0022 -86.668
rradius 73.9074
rwrist 2.88497
rhand -14.4764 -25.1997
rfingers 7.12502
rthumb 11.6697 -54.8547
lclavicle 2.28602e-015 -3.57812e-015
lhumerus -34.1143 -44.6141 82.305
lradius 88.9859
lwrist 27.1038
lhand -9.87272 -23.172
lfingers 7.12502
lthumb 16.1062 6.17872
rfemur 38.9863 -0.908555 18.8705
rtibia -21.1418
rfoot -11.2871 -16.7807
rtoes -4.01895
lfemur 40.8572 -5.23744 -13.4568
ltibia -26.0304
lfoot 0.242298 13.6849
ltoes -17.0019
185
root -1.1496 17.4657 6.47654 -15.4047 -2.76389 -3.51989
lowerback -2.35774 -0.353934 2.00436
upperback -1.83079 -0.500984 2.02771
thorax -0.553731 -0.257955 0.944789
lowerneck -21.0364 -2.21743 -0.808634
upperneck 25.9891 -4.16102 4.04647
head 12.1849 -1.39878 0.972504
rclavicle 1.88845e-015 8.94531e-015
rhumerus -35.6401 24.947 -87.0209
rradius 75.7682
rwrist 2.7179
rhand -14.4514 -25.0071
rfingers 7.12502
rthumb 11.6938 -54.6607
lclavicle 1.88845e-015 8.94531e-015
lhumerus -36.308 -44.7851 83.1972
lradius 90.382
lwrist 27.257
lhand -9.80103 -23.2545
lfingers 7.12502
lthumb 16.1752 6.09061
rfemur 39.0068 -0.863629 19.0451
rtibia -20.9729
rfoot -11.406 -16.6824
rtoes -3.90914
lfemur 40.9896 -5.33092 -13.345
ltibia -25.9874
lfoot 0.0510676 13.7762
ltoes -16.6348
186
root -1.14608 17.4616 6.48104 -15.5528 -3.08939 -3.50495
lowerback -2.34924 -0.271641 1.96804
upperback -1.79726 -0.39156 2.06197
thorax -0.5238 -0.202585 1.00212
lowerneck -20.9919 -2.17623 -0.783537
upperneck 26.3979 -4.13675 4.05457
head 12.3366 -1.378 0.978402
rclavicle -3.18055e-015 -4.37326e-015
rhumerus -37.7345 25.2528 -87.4197
rradius 77.7963
rwrist 1.80885
rhand -14.7568 -25.0696
rfingers 7.12502
rthumb 11.3993 -54.7397
lclavicle -3.18055e-015 -4.37326e-015
lhumerus -38.4501 -44.8776 84.0296
lradius 91.7927
lwrist 27.3995
lhand -9.75862 -23.3728
lfingers 7.12502
lthumb 16.2161 5.96899
rfemur 39.0571 -0.617258 19.079
rtibia -20.7866
rfoot -11.4196 -16.5255
rtoes -4.16801
lfemur 41.2232 -5.18344 -13.3751
ltibia -25.9285
lfoot -0.0803093 13.9289
ltoes -16.6965
187
root -1.14155 17.4627 6.48987 -15.5528 -3.20349 -3.3439
lowerback -2.50247 -0.24382 1.74497
upperback -1.78622 -0.356024 2.03434
thorax -0.425455 -0.182561 1.09855
lowerneck -20.9961 -2.10787 -0.89514
upperneck 26.8784 -4.10181 4.29627
head 12.5377 -1.33243 1.09903
rclavicle -3.18055e-015 -2.98177e-015
rhumerus -39.7658 25.5741 -87.7599
rradius 79.8274
rwrist 1.15205
rhand -15.0287 -25.1971
rfingers 7.12502
rthumb 11.1371 -54.8816
lclavicle -3.18055e-015 -2.98177e-015
lhumerus -40.5576 -44.9524 84.7552
lradius 93.2861
lwrist 27.5874
lhand -9.81559 -23.5403
lfingers 7.12502
lthumb 16.1612 5.80596
rfemur 38.9717 -0.517945 18.8953
rtibia -20.5854
rfoot -11.4525 -16.3858
rtoes -4.56027
lfemur 41.2433 -5.14777 -13.606
ltibia -25.8512
lfoot -0.1669 14.0437
ltoes -16.6784
188
root -1.13288 17.4709 6.50381 -15.3373 -2.9525 -3.35678
lowerback -2.83654 -0.304149 1.67584
upperback -1.8353 -0.44393 1.98723
thorax -0.288117 -0.22565 1.08532
lowerneck -20.8902 -2.09398 -1.00776
upperneck 27.254 -4.13423 4.51888
head 12.6776 -1.32315 1.20223
rclavicle 5.66536e-015 -1.76918e-014
rhumerus -41.7904 25.7698 -88.0488
rradius 81.881
rwrist 0.823868
rhand -15.3385 -25.243
rfingers 7.12502
rthumb 10.8383 -54.9434
lclavicle 5.66536e-015 -1.76918e-014
lhumerus -42.5935 -45.1495 85.3877
lradius 94.82
lwrist 27.8929
lhand -9.80393 -23.6279
lfingers 7.12502
lthumb 16.1725 5.71746
rfemur 38.7232 -0.733064 18.8153
rtibia -20.4132
rfoot -11.5443 -16.3309
rtoes -4.92917
lfemur 40.9539 -5.40473 -13.7013
ltibia -25.7335
lfoot -0.276729 14.0739
ltoes -16.1975
189
root -1.12595 17.4779 6.51438 -15.1607 -2.81441 -3.50486
lowerback -3.06196 -0.31706 1.74548
upperback -1.86522 -0.468909 1.99096
thorax -0.193157 -0.238315 1.04824
lowerneck -20.6923 -2.10414 -0.98817
upperneck 27.5127 -4.16557 4.50075
head 12.7419 -1.33621 1.1904
rclavicle -6.36111e-015 8.54774e-015
rhumerus -43.7847 25.919 -88.2646
rradius 83.9652
rwrist 0.354624
rhand -15.5559 -25.3156
rfingers 7.12502
rthumb 10.6286 -55.0268
lclavicle -6.36111e-015 8.54774e-015
lhumerus -44.4909 -45.3358 85.9625
lradius 96.2812
lwrist 28.1979
lhand -9.65401 -23.6199
lfingers 7.12502
lthumb 16.3168 5.7136
rfemur 38.5058 -0.787625 18.9717
rtibia -20.2558
rfoot -11.7165 -16.3565
rtoes -5.02562
lfemur 40.7045 -5.59177 -13.6061
ltibia -25.5813
lfoot -0.40799 14.0881
ltoes -15.8339
190
root -1.12273 17.4806 6.52038 -15.1044 -2.95536 -3.52956
lowerback -3.09176 -0.241046 1.69203
upperback -1.87351 -0.367207 2.00484
thorax -0.185117 -0.187033 1.09519
lowerneck -20.4265 -2.0746 -0.806504
upperneck 27.7306 -4.12728 4.27593
head 12.7635 -1.33132 1.08319
rclavicle 9.74045e-015 -1.59028e-015
rhumerus -45.7799 26.014 -88.4407
rradius 86.0229
rwrist -0.188017
rhand -15.3822 -25.5378
rfingers 7.12502
rthumb 10.7961 -55.2403
lclavicle 9.74045e-015 -1.59028e-015
lhumerus -46.3742 -45.4948 86.4761
lradius 97.7073
lwrist 28.539
lhand -9.43565 -23.5118
lfingers 7.12502
lthumb 16.527 5.80431
rfemur 38.3747 -0.574066 19.0738
rtibia -20.1026
rfoot -11.8529 -16.3661
rtoes -5.1378
lfemur 40.6179 -5.52331 -13.5887
ltibia -25.4159
lfoot -0.535383 14.1208
ltoes -16.0139
191
root -1.11863 17.4847 6.52558 -15.0236 -3.123 -3.44156
lowerback -3.11012 -0.164401 1.55293
upperback -1.88896 -0.26188 1.9845
thorax -0.190771 -0.133494 1.15526
lowerneck -20.1271 -2.03577 -0.580856
upperneck 27.9766 -4.07299 3.99509
head 12.7867 -1.32216 0.949922
rclavicle 2.38542e-015 -1.8487e-014
rhumerus -47.7496 26.0522 -88.6072
rradius 88.0277
rwrist -0.551705
rhand -14.9351 -25.6639
rfingers 7.12502
rthumb 11.2274 -55.3435
lclavicle 2.38542e-015 -1.8487e-014
lhumerus -48.2542 -45.68 86.8673
lradius 99.1749
lwrist 29.0263
lhand -9.27346 -23.4822
lfingers 7.12502
lthumb 16.6832 5.82091
rfemur 38.2463 -0.473823 18.9688
rtibia -20.0464
rfoot -11.7922 -16.2865
rtoes -5.32558
lfemur 40.4804 -5.39931 -13.6997
ltibia -25.2093
lfoot -0.645325 14.1726
ltoes -16.4957
